<?xml version="1.0" encoding="UTF-8"?>
<svg width="96px" height="96px" viewBox="0 0 96 96" version="1.1" xmlns="http://www.w3.org/2000/svg" xmlns:xlink="http://www.w3.org/1999/xlink">
    <title>Artboard Copy</title>
    <g id="Artboard-Copy" stroke="none" stroke-width="1" fill="none" fill-rule="evenodd">
        <g id="Orion_indicator-right" transform="translate(48.500000, 50.000000) scale(-1, 1) translate(-48.500000, -50.000000) translate(3.000000, 14.000000)" fill="currentColor" fill-rule="nonzero">
            <path d="M82.8974086,41 L49.831832,7.24577898 C48.4797505,5.39382174 48.8094511,2.78104913 50.5771538,1.33934004 C51.2294296,0.547524662 52.1726232,0.0652352903 53.1844348,0.00614199669 C54.1962463,-0.0529512969 55.1871687,0.316379013 55.9236529,1.02708601 L89,34.781307 L82.8974086,41 Z" id="Path"></path>
            <path d="M84.8433023,30 L49.8406909,64.8554691 C48.47421,66.6812563 48.8074218,69.2571077 50.5939502,70.678444 C51.253211,71.4597542 52.2069096,71.9356835 53.2300478,71.9939496 C54.2531859,72.0522158 55.2551539,71.6876588 55.9995656,70.9862855 L91,36.1329843 L84.8433023,30 Z" id="Path"></path>
            <path d="M81,32 L3.78241491,32 C2.68793683,32.0401326 1.65962047,32.5491252 0.946241237,33.4038399 C0.232862003,34.2585546 -0.100597806,35.3811347 0.0265340668,36.5 C-0.0662881304,38.7823511 1.57501996,40.748837 3.78241491,41 L81,41 L81,32 Z" id="Path"></path>
        </g>
    </g>
</svg>