<?xml version="1.0" encoding="UTF-8"?>
<svg viewBox="0 0 96 96" version="1.1" xmlns="http://www.w3.org/2000/svg" xmlns:xlink="http://www.w3.org/1999/xlink">
    <title>blend-icon</title>
    <g id="blend-icon" stroke="none" stroke-width="1" fill="none" fill-rule="evenodd">
        <g id="Group-8" transform="translate(0.000000, 2.000000)" fill="currentColor">
            <path d="M57.2006622,30.0733242 C46.4181765,29.2961965 35.1700233,29.7104122 24.5937914,32.0531543 C20.0024861,33.0703303 13.0090202,35.0316078 9.4153592,38.0986595 C6.82272376,40.3115332 6.75585098,41.5310843 9.43339231,43.753045 C16.1805936,49.351962 33.4557507,51.6642248 42.1084508,51.9951431 C53.3797089,52.4260183 78.0270273,51.2257771 86.809716,43.5822852 C89.4177547,41.3126177 89.0210263,40.0936345 86.5221254,38.0106292 C83.4615683,35.4592647 78.8452797,34.118175 75.0880058,32.9726451 C74.2590462,33.0775242 67.7028832,44.9532862 67.2242544,46.6959077 L67.0020338,46.8496295 C65.2096177,47.1070945 63.4029254,47.4486142 61.6031833,47.6409557 C56.6183429,48.1734918 51.5771491,48.243916 46.6212369,48.2009421 C44.5913848,48.183336 42.5207703,48.3637508 40.5236033,48.0176876 C46.6548611,42.6249319 52.4545727,36.7634385 57.2006622,30.0733242 M0.0484727966,42.9187449 C0.0255557176,42.0138312 -0.0480794868,40.7588786 0.0484727966,39.895803 C0.945995774,31.8827731 12.5472974,27.5918161 19.1213057,25.7799062 C25.8301866,23.9307018 32.7575312,23.119687 39.6822459,22.5161588 L52.4301528,22.31757 L62.2245743,23.04453 C64.8882151,18.8467147 67.2436024,14.4614801 69.4137746,9.98386105 C71.2901574,6.11242055 72.3963761,0.660599359 77.5521553,0.0519596915 C82.7723654,-0.564252475 89.9991347,4.40652567 91.7301256,9.33243675 C94.00906,15.8175255 88.2876797,18.5655857 84.3686714,22.2282145 C82.8831939,23.6168216 81.5374729,25.1718345 80.0653324,26.5763439 C87.2271074,29.5405989 96.1474864,32.7594792 95.9981497,42.0774402 C95.7013548,60.577057 86.3742915,83.3557042 67.9279214,89.9142462 C53.6740618,94.982331 29.1080803,94.3907295 17.3766022,83.7324361 C6.41679091,73.7751668 0.420217872,57.561309 0.0484727966,42.9187449" id="Fill-4"></path>
        </g>
    </g>
</svg>