<?xml version="1.0" encoding="UTF-8"?>
<svg width="96px" height="96px" viewBox="0 0 96 96" version="1.1" xmlns="http://www.w3.org/2000/svg" xmlns:xlink="http://www.w3.org/1999/xlink">
    <title>Artboard Copy</title>
    <g id="Artboard-Copy" stroke="none" stroke-width="1" fill="none" fill-rule="evenodd">
        <g id="Orion_no-camera-photo" transform="translate(3.000000, 3.000000)" fill="currentColor" fill-rule="nonzero">
            <path d="M69.3,30 L58.0995,30 L52.2015,24 L37.8015,24 L31.9065,30 L20.7015,30 C19.9904625,29.9944103 19.306371,30.2717237 18.7999316,30.7708478 C18.2934923,31.2699719 18.0062556,31.9499564 18.0015,32.661 L18.0015,60.342 C18.0138776,61.8212406 19.2222471,63.0108133 20.7015,63.000083 L69.3015,63.000083 C70.0122794,63.0055905 70.6961447,62.7284825 71.2025409,62.2296823 C71.708937,61.7308821 71.9963482,61.0512828 72.0015,60.3405 L72.0015,32.661 C71.9963482,31.9498194 71.7087789,31.2698385 71.2021015,30.770757 C70.6954241,30.2716755 70.0111773,29.9944095 69.3,30 L69.3,30 Z" id="Path" opacity="0.604678199"></path>
            <path d="M69.3,63 L20.7,63 C19.2201662,63.0108108 18.0115544,61.8203282 18,60.3405 L18,32.661 C18.0020786,31.9900728 18.2620072,31.3456218 18.726,30.861 L0.2145,49.368 C2.4097901,71.8175571 20.8866187,89.1733341 43.4295,89.961 L70.9875,62.4 C70.5096483,62.7861704 69.9143818,62.9978207 69.3,63 Z" id="Path" opacity="0.15"></path>
            <path d="M37.575,37.575 L18,57.15 L18,60.3405 C18.0055478,61.0514197 18.2932913,61.7310156 18.7999256,62.2297733 C19.3065599,62.7285309 19.9905807,63.0055914 20.7015,63.000083 L41.8515,63.000083 L52.4265,52.4265 L37.575,37.575 Z" id="Path" opacity="0.15"></path>
            <circle id="Oval" opacity="0.698707217" cx="45" cy="45" r="10.5"></circle>
        </g>
    </g>
</svg>