<?xml version="1.0" encoding="UTF-8"?>
<svg width="96px" height="96px" viewBox="0 0 96 96" version="1.1" xmlns="http://www.w3.org/2000/svg" xmlns:xlink="http://www.w3.org/1999/xlink">
    <title>Artboard Copy 4</title>
    <g id="Artboard-Copy-4" stroke="none" stroke-width="1" fill="none" fill-rule="evenodd">
        <g id="Orion_checkmark" transform="translate(5.000000, 17.000000)" fill="currentColor" fill-rule="nonzero">
            <path d="M30.5065591,61 C29.3077253,61.0012329 28.1578209,60.5247732 27.3113025,59.6760491 L1.3244207,33.6941822 C0.182461751,32.5528473 -0.263739359,30.8891 0.153897018,29.329658 C0.571533396,27.7702159 1.78955836,26.5519954 3.34915367,26.1338883 C4.90874899,25.7157812 6.57297502,26.161308 7.7149339,27.302643 L30.5065591,50.0921292 L79.2850661,1.32303534 C80.427025,0.18170037 82.0912511,-0.263826375 83.6508463,0.154280717 C85.2104416,0.572387809 86.4284666,1.79060832 86.846103,3.35005037 C87.2637394,4.90949243 86.8175383,6.57323967 85.6755793,7.7145746 L33.7018157,59.6783084 C32.8549262,60.5262039 31.7050677,61.0018315 30.5065591,61 L30.5065591,61 Z" id="Path"></path>
        </g>
    </g>
</svg>