<?xml version="1.0" encoding="UTF-8"?>
<svg width="96px" height="96px" viewBox="0 0 96 96" version="1.1" xmlns="http://www.w3.org/2000/svg" xmlns:xlink="http://www.w3.org/1999/xlink">
    <title>Artboard Copy</title>
    <g id="Artboard-Copy" stroke="none" stroke-width="1" fill="none" fill-rule="evenodd" stroke-linecap="round" stroke-linejoin="round">
        <g id="Orion_brush-(1)" transform="translate(3.000000, 4.000000)" fill="currentColor">
            <path d="M89.25,0.786141845 C88.3240017,-0.135295636 86.871147,-0.26163082 85.8,0.486141845 L85.65,0.486141845 C53.85,24.1861418 38.85,38.1361418 27.9,49.0861418 L40.8,62.1361418 C51.75,51.1861418 65.7,36.1861418 89.4,4.38614184 L89.55,4.38614184 C90.3857161,3.28610572 90.2562639,1.73267963 89.25,0.786141845 L89.25,0.786141845 Z" id="Path" fill-opacity="0.8"></path>
            <path d="M24,52.9861418 C20.3963421,56.5897999 20.3963421,62.4324838 24.0000001,66.0361417 C27.6036581,69.6397997 33.446342,69.6397997 37.05,66.0361418 L40.95,62.1361418 L28.05,49.0861418 L24,52.9861418 Z" id="Path" fill-opacity="0.5"></path>
            <path d="M24.45,79.2361418 C27.9708151,75.7153265 27.9708151,70.0069572 24.4499998,66.486142 C20.9291846,62.9653268 15.2208153,62.9653267 11.7,66.4861418 C5.25,72.7861418 7.5,85.8361418 0,88.0861418 C7.05,87.6361418 17.25,86.4361418 24.45,79.2361418 Z" id="Path"></path>
        </g>
    </g>
</svg>