<?xml version="1.0" encoding="UTF-8"?>
<svg width="96px" height="96px" viewBox="0 0 96 96" version="1.1" xmlns="http://www.w3.org/2000/svg" xmlns:xlink="http://www.w3.org/1999/xlink">
    <title>Artboard</title>
    <g id="Artboard" stroke="none" stroke-width="1" fill="none" fill-rule="evenodd">
        <g id="Orion_chili-pepper-(5)" transform="translate(5.000000, 2.000000)" fill="currentColor" fill-rule="nonzero">
            <path d="M16.3185,13.9860001 C15.6504433,13.9862798 15.0627197,13.5447227 14.877,12.903 C13.2945,7.437 5.6505,3 1.5,3 C0.671572875,3 0,2.32842712 0,1.5 C0,0.671572875 0.671572875,0 1.5,0 C6.6405,0 15.732,5.0685 17.76,12.069 C17.8707628,12.4513122 17.8250318,12.8619723 17.6328771,13.2105517 C17.4407223,13.5591311 17.1179012,13.817045 16.7355,13.9275 C16.5998605,13.9661259 16.4595319,13.9858123 16.3185,13.9860001 L16.3185,13.9860001 Z" id="Path"></path>
            <path d="M25.5,16.5 C26.3497561,16.5057582 27.1974193,16.5850541 28.0335,16.737 L28.062,16.722 C26.9713046,13.3525309 24.0058878,10.935971 20.4856129,10.5478954 C16.965338,10.1598198 13.544726,11.8723829 11.746241,14.9233483 C9.9477559,17.9743136 10.1057882,21.7964184 12.15,24.6885 C14.7063842,19.6659874 19.8643343,16.5022515 25.5,16.5 Z" id="Path" opacity="0.700125558"></path>
            <path d="M79.5,79.5 C66.876,79.5 59.25,75.6675 51.75,56.118 C45.018,38.568 41.967,28.7865 37.95,23.142 C37.932,23.115 37.9095,23.0895 37.8915,23.0625 C37.4699757,22.4667415 37.0163032,21.8943931 36.5325,21.348 C36.4965,21.3135 36.444,21.3015 36.4095,21.2655 C34.1834426,18.8847604 31.2417322,17.2948887 28.0305,16.737 C27.1954056,16.5852263 26.3487536,16.5059311 25.5,16.5 C17.2229166,16.5173274 10.5173274,23.2229166 10.5,31.5 C10.5,31.6965 10.5495,31.881 10.5585,32.0745 L10.5,32.118 C10.5,50.0805 40.3245,91.3095 79.4145,91.491 C79.4415,91.491 79.47,91.5 79.497,91.5 L79.6725,91.5 L79.6725,91.482 C82.9404248,91.3789429 85.5225593,88.6754256 85.4761271,85.4062149 C85.4284283,82.1370043 82.7695372,79.5089399 79.5,79.5 Z" id="Path"></path>
        </g>
    </g>
</svg>