<?xml version="1.0" encoding="UTF-8"?>
<svg width="96px" height="96px" viewBox="0 0 96 96" version="1.1" xmlns="http://www.w3.org/2000/svg" xmlns:xlink="http://www.w3.org/1999/xlink">
    <title>Artboard Copy</title>
    <g id="Artboard-Copy" stroke="none" stroke-width="1" fill="none" fill-rule="evenodd">
        <g id="Orion_add" transform="translate(47.679455, 47.679455) rotate(45.000000) translate(-47.679455, -47.679455) translate(-14.820545, -14.820545)" fill="currentColor" stroke="currentColor" stroke-width="3.25">
            <path d="M62.5,19.9308262 C63.5767542,19.9308262 64.5515721,20.367267 65.2572015,21.0728964 C65.9628309,21.7785258 66.3992717,22.7533437 66.3992717,23.8300979 L66.3992717,23.8300979 L66.3992717,58.6007283 L101.169902,58.6007283 C102.246656,58.6007283 103.221474,59.0371691 103.927104,59.7427985 C104.632733,60.4484279 105.069174,61.4232458 105.069174,62.5 C105.069174,63.5767542 104.632733,64.5515721 103.927104,65.2572015 C103.221474,65.9628309 102.246656,66.3992717 101.169902,66.3992717 L101.169902,66.3992717 L66.3992717,66.3992717 L66.3992717,101.169902 C66.3992717,102.246656 65.9628309,103.221474 65.2572015,103.927104 C64.5515721,104.632733 63.5767542,105.069174 62.5,105.069174 C61.4232458,105.069174 60.4484279,104.632733 59.7427985,103.927104 C59.0371691,103.221474 58.6007283,102.246656 58.6007283,101.169902 L58.6007283,101.169902 L58.6007283,66.3992717 L23.8300979,66.3992717 C22.7533437,66.3992717 21.7785258,65.9628309 21.0728964,65.2572015 C20.367267,64.5515721 19.9308262,63.5767542 19.9308262,62.5 C19.9308262,61.4232458 20.367267,60.4484279 21.0728964,59.7427985 C21.7785258,59.0371691 22.7533437,58.6007283 23.8300979,58.6007283 L23.8300979,58.6007283 L58.6007283,58.6007283 L58.6007283,23.8300979 C58.6007283,22.7533437 59.0371691,21.7785258 59.7427985,21.0728964 C60.4484279,20.367267 61.4232458,19.9308262 62.5,19.9308262 Z" id="Path" transform="translate(62.500000, 62.500000) rotate(45.000000) translate(-62.500000, -62.500000) "></path>
        </g>
    </g>
</svg>